<?xml version="1.0" encoding="UTF-8"?>
<svg  version="1.1" xmlns="http://www.w3.org/2000/svg" width="3000" height="2000">
<path  d="M0 0 C2.18467086 1.20874003 4.36957733 2.41705431 6.5546875 3.625 C16.31565414 9.02809361 26.06150619 14.45563325 35.76025391 19.96972656 C45.14365284 25.30317269 54.57431787 30.54312936 64.0625 35.6875 C65.71390991 36.58867554 65.71390991 36.58867554 67.39868164 37.50805664 C68.43371826 38.06614014 69.46875488 38.62422363 70.53515625 39.19921875 C71.446604 39.69252686 72.35805176 40.18583496 73.29711914 40.6940918 C78.4957467 43.32518711 78.4957467 43.32518711 84.15551758 43.71142578 C84.81189209 43.4586084 85.4682666 43.20579102 86.14453125 42.9453125 C86.89476562 42.66461914 87.645 42.38392578 88.41796875 42.09472656 C89.20816406 41.7747168 89.99835938 41.45470703 90.8125 41.125 C91.6478125 40.79983398 92.483125 40.47466797 93.34375 40.13964844 C116.63772284 30.91544664 137.42271891 17.98751827 158.125 4 C161.68856885 1.60187911 165.25425726 -0.7930784 168.8203125 -3.1875 C169.68062576 -3.7657402 170.54093903 -4.34398041 171.42732239 -4.93974304 C242.75342941 -52.79802286 242.75342941 -52.79802286 280.82519531 -45.54199219 C293.73691841 -42.73667647 306.65367047 -35.3343296 314.22167969 -24.203125 C315.95876278 -21.3044342 317 -19.42573014 317 -16 C317.66 -16 318.32 -16 319 -16 C319.061875 -16.99 319.061875 -16.99 319.125 -18 C321.77087022 -27.07155503 330.40812463 -34.16550903 338.1640625 -38.953125 C356.79565495 -48.96287444 375.87707065 -48.30379509 395.86328125 -42.96875 C405.41866786 -39.98206105 414.23408371 -35.79450566 423 -31 C423.95076416 -30.4855835 424.90152832 -29.97116699 425.88110352 -29.44116211 C436.93159529 -23.3074269 447.337801 -16.24607062 457.8125 -9.1875 C461.42179375 -6.76225861 465.03278157 -4.33955093 468.64453125 -1.91796875 C469.95934479 -1.03615181 469.95934479 -1.03615181 471.30072021 -0.13652039 C476.93637196 3.63670723 482.59389928 7.37365232 488.28515625 11.0625 C488.94207962 11.48904373 489.59900299 11.91558746 490.27583313 12.35505676 C497.70626295 17.14853166 505.31614904 21.62703132 513 26 C513.62052246 26.35690918 514.24104492 26.71381836 514.88037109 27.08154297 C522.505633 31.4397128 530.28939478 35.0918039 538.4375 38.375 C539.26612549 38.70902832 540.09475098 39.04305664 540.94848633 39.38720703 C543.28504584 40.30223981 545.63865716 41.15151662 548 42 C548.64976807 42.28528564 549.29953613 42.57057129 549.96899414 42.86450195 C553.25121658 44.0866642 555.22903038 44.2549355 558.59594727 43.14160156 C561.670782 41.70113844 564.60746388 40.11001462 567.5625 38.4375 C568.66094238 37.84050293 569.75938477 37.24350586 570.89111328 36.62841797 C574.27618605 34.77870188 577.63978953 32.89444374 581 31 C582.93358646 29.92055987 584.86717985 28.84113213 586.80078125 27.76171875 C590.5623501 25.65088905 594.31326658 23.52231549 598.05859375 21.3828125 C615.99780832 11.14299939 634.117539 1.21273167 652.31591797 -8.55810547 C654.00633081 -9.46619882 655.69562231 -10.37638568 657.38330078 -11.28955078 C771.62126208 -73.06598256 771.62126208 -73.06598256 822.97265625 -59.265625 C836.13749113 -55.32461955 849.25148308 -48.75651067 856.40625 -36.61328125 C862.99914618 -24.09827775 864.25757727 -9.63755265 860.375 4 C854.79123009 19.5061485 843.87223154 31.81134741 829 39 C815.40735827 45.0064072 800.98070503 48.34354753 786.59803772 51.8883934 C784.60288747 52.38045357 782.60846456 52.87538006 780.61413574 53.37075806 C735.42046293 64.57624643 690.15473607 73.2213063 643.4375 73.25 C642.44544556 73.25067474 641.45339111 73.25134949 640.43127441 73.25204468 C611.35202393 73.22076598 582.43793165 70.54428696 554.57421875 61.69921875 C551.80122608 60.82524934 551.80122608 60.82524934 548 61 C613.97913158 77.98390224 613.97913158 77.98390224 681 90 C681.92925293 90.13132324 682.85850586 90.26264648 683.81591797 90.39794922 C726.87474569 96.1938609 771.88732324 91.72553025 813 78 C813.86270508 77.71286133 814.72541016 77.42572266 815.61425781 77.12988281 C832.68612011 71.36446747 849.21037284 64.20977232 865.14282227 55.7878418 C891.86788466 41.75252902 927.13256376 33.58615642 956.921875 42.0390625 C970.01435698 46.39385801 980.93968278 53.5814126 987.375 66.0625 C991.91408422 75.95474333 993.89710816 85.90449735 991.0625 96.6875 C987.6245476 105.41090259 980.5388391 111.42474002 972.1640625 115.16015625 C963.72937593 118.43354544 950.4824355 118.73673831 941.95703125 115.171875 C935.46704494 111.28565565 929.91075075 106.51561961 928 99 C927.4018876 93.75501437 927.33559054 89.49492129 929.5 84.625 C934.40616742 79.47352421 939.53987297 76.23681801 946.765625 75.80078125 C953.13041105 76.36827092 957.98787998 80.23560748 962 85 C962 85.66 962 86.32 962 87 C959.8125 87.75 959.8125 87.75 957 88 C954.3125 86.125 954.3125 86.125 952 84 C948.49206934 82.24603467 944.7335294 83.1875221 941 84 C937.89152427 85.36942449 937.89152427 85.36942449 936 88 C934.53637718 92.87874274 934.45152757 95.73964853 936.875 100.25 C940.10613306 104.72252206 943.65420469 106.77108154 949 108 C957.47771003 108.95077122 965.6471166 108.67910762 973 104 C977.88567307 99.80578159 981.10380245 95.49743224 982 89 C982.38445138 79.82122336 978.87404411 71.63200926 973.0234375 64.63671875 C962.32229782 54.3052548 947.81486869 51.59863156 933.4375 51.6875 C932.48077393 51.69241455 931.52404785 51.6973291 930.53833008 51.70239258 C907.06831493 52.0838757 885.22653451 59.96408833 864.6875 70.875 C777.91048465 116.97126639 686.14805455 110.27144194 582.77540588 84.13233376 C580.43281593 83.5349579 578.08944241 82.94077019 575.74572754 82.3478241 C574.9678677 82.15101327 574.19000786 81.95420244 573.38857651 81.75142765 C571.81075213 81.35233579 570.23288386 80.95341744 568.65497208 80.55467129 C563.95581254 79.36472839 559.26361609 78.15090479 554.57513714 76.91959286 C551.61355728 76.14709735 548.64700519 75.39520688 545.67891121 74.64817619 C544.28777554 74.29336256 542.89881839 73.92987712 541.51238823 73.5571003 C533.42506871 71.38750597 527.64000545 70.15514654 520 74 C518.75657837 74.48496948 518.75657837 74.48496948 517.48803711 74.97973633 C516.8410083 75.26099365 516.19397949 75.54225098 515.52734375 75.83203125 C514.78250732 76.15236328 514.0376709 76.47269531 513.27026367 76.80273438 C512.50045166 77.13595703 511.73063965 77.46917969 510.9375 77.8125 C507.62759286 79.21450887 504.31382554 80.60728273 501 82 C500.35740234 82.27247559 499.71480469 82.54495117 499.05273438 82.82568359 C472.40333915 93.98784832 432.6924484 106.99108007 404 98.3125 C396.62585387 95.25492721 392.31893182 91.282992 388.9140625 83.95703125 C386.88350947 77.38810542 386.67781193 70.09251272 389.39453125 63.73828125 C394.88814339 54.36839777 403.88969857 50.73960478 413.8515625 47.796875 C444.71258574 39.98589641 480.82212926 47.97457016 511.4375 53.59765625 C512.73042969 53.83371582 514.02335937 54.06977539 515.35546875 54.31298828 C517.67534665 54.75029645 519.99122562 55.20982897 522.30078125 55.69873047 C523.27402344 55.89998535 524.24726562 56.10124023 525.25 56.30859375 C526.08015625 56.49091553 526.9103125 56.6732373 527.765625 56.86108398 C530.4256492 57.02646355 531.75536423 56.37490376 534 55 C532.86046875 54.41734375 531.7209375 53.8346875 530.546875 53.234375 C504.20100054 39.64077044 480.37864405 23.1577317 456.4921875 5.70703125 C446.17726405 -1.81204929 435.73143376 -9.08583749 425 -16 C424.34402832 -16.42297363 423.68805664 -16.84594727 423.01220703 -17.28173828 C403.42523756 -29.78522836 380.47627581 -40.32738363 356.75 -35.9375 C345.14570365 -32.98367911 335.18908175 -27.83412126 328 -18 C323.15199553 -7.99000114 322.45940187 2.57517306 325.5625 13.1875 C328.81536952 21.87698361 333.46449834 27.83500909 341.7890625 32.02734375 C342.51867188 32.34832031 343.24828125 32.66929687 344 33 C344.79019531 33.35578125 345.58039062 33.7115625 346.39453125 34.078125 C355.44270666 37.27957837 365.1631435 36.35896861 374 33 C378.8500534 30.5749733 383.28374702 27.98933227 387 24 C388.32 24.66 389.64 25.32 391 26 C388.49295434 32.21311317 382.12360106 35.47473282 376.328125 38.3046875 C364.59644545 43.17511204 353.0806294 43.36413502 341.046875 39.26171875 C330.98163448 35.09367684 324.42788234 28.47943566 319.6640625 18.796875 C319 17 319 17 319 14 C318.34 14 317.68 14 317 14 C316.8453125 15.33224609 316.8453125 15.33224609 316.6875 16.69140625 C315.02670935 24.68396127 308.83967272 30.865562 302.40234375 35.53125 C291.4283959 42.24052543 279.35967117 43.61357303 266.875 40.875 C258.37522364 38.51642331 251.51309004 33.82750161 245 28 C245.66 26.68 246.32 25.36 247 24 C249.97201102 25.39898717 252.57016987 27.04330352 255.25 28.9375 C264.46633925 35.07175178 274.73542673 37.4589225 285.8125 35.3125 C295.13986871 32.75003607 302.9654066 27.7745993 307.8984375 19.29296875 C313.22929655 8.19646428 313.4360476 -3.28661861 309.5078125 -14.8515625 C304.85280396 -24.57160625 295.83331447 -30.33660833 286 -34 C265.46708811 -40.58602834 245.22889925 -34.8680298 226.58984375 -25.4921875 C212.51520486 -18.05384149 199.3936751 -8.83894276 186.70166016 0.72949219 C183.89639198 2.8239851 181.04243758 4.84900711 178.1875 6.875 C174.34641332 9.60207861 170.51924993 12.34542959 166.71875 15.12890625 C146.14091539 30.17843419 124.59827018 43.21106683 102 55 C106.50779342 57.41016688 109.97934061 56.80811182 114.7734375 55.76953125 C115.52590759 55.6192598 116.27837769 55.46898834 117.0536499 55.31416321 C118.66311306 54.9919461 120.27137339 54.66367202 121.878479 54.32989502 C126.06368794 53.46252548 130.25829337 52.64356758 134.453125 51.82421875 C135.27986725 51.66195801 136.1066095 51.49969727 136.95840454 51.33251953 C143.65266133 50.03294559 150.35699623 48.96766119 157.125 48.125 C157.98528809 48.01776611 158.84557617 47.91053223 159.73193359 47.80004883 C162.15286895 47.51284768 164.57522843 47.25256496 167 47 C167.80687256 46.9071875 168.61374512 46.814375 169.44506836 46.71875 C177.29152522 45.89039373 185.13257765 45.7799345 193.0144043 45.75976562 C195.29838506 45.75005998 197.58146325 45.71892917 199.86523438 45.6875 C214.42524188 45.58145164 230.98816568 46.94617762 242.0625 57.625 C243.0215625 58.800625 243.0215625 58.800625 244 60 C244.86625 61.051875 244.86625 61.051875 245.75 62.125 C249.24193018 67.36289527 248.3993112 73.97467921 248 80 C246.61113185 86.42351521 243.43996832 91.02478755 238.375 95.125 C214.51364368 108.38130906 181.43234461 96.68484809 157.14672852 89.80444336 C144.06319742 86.00064246 131.61107503 80.84193818 119.17602539 75.29931641 C117.60389282 74.65615479 117.60389282 74.65615479 116 74 C115.08920181 73.53176819 115.08920181 73.53176819 114.16000366 73.05407715 C106.47450597 69.63448831 99.30925584 72.25810072 91.59375 74.328125 C90.08178952 74.71402424 88.56922528 75.09756461 87.05610657 75.47889709 C83.85457573 76.29016655 80.65727484 77.11583675 77.46255493 77.95352173 C72.47730472 79.25989965 67.48351513 80.53094261 62.48706055 81.79370117 C61.66234221 82.00223693 60.83762388 82.21077269 59.98791409 82.42562771 C58.33049947 82.84469433 56.67306287 83.26367404 55.01560402 83.68256569 C52.54869035 84.30714514 50.08255989 84.93473255 47.61662292 85.56315613 C-8.8286065 99.93253847 -68.58169365 112.63024357 -127 104 C-127.89041992 103.87109375 -128.78083984 103.7421875 -129.69824219 103.609375 C-166.9773308 98.04263933 -200.53614797 85.40953592 -233.97314453 68.49609375 C-246.68417726 62.08589428 -259.11144103 57.23693271 -273 54 C-274.13308594 53.73445312 -275.26617188 53.46890625 -276.43359375 53.1953125 C-294.27991686 49.8070639 -316.32067608 49.87018866 -331.88671875 60.30859375 C-339.68025709 66.54630558 -344.49284735 74.1324139 -345.9375 84.0625 C-346.34863709 90.70236396 -344.36594987 95.5139627 -340.375 100.75 C-334.70049057 106.78348083 -328.71117062 108.25035334 -320.5625 108.5625 C-313.80243374 108.35209633 -308.31143597 107.37350383 -303 103 C-300.12810106 99.43210515 -299.02703271 96.37866824 -298.9375 91.8125 C-300.36031542 88.04622388 -301.73210051 86.38284338 -305 84 C-308.0614335 83.03026416 -310.80030799 82.68907587 -314 83 C-317.31180732 84.7628112 -317.31180732 84.7628112 -320 87 C-322.25 87.8125 -322.25 87.8125 -324 88 C-324.66 87.67 -325.32 87.34 -326 87 C-325.11804207 83.14143406 -323.56200438 81.39341667 -320.375 79.25 C-315.29564729 76.37230917 -311.19364157 75.20770301 -305.44921875 76.6328125 C-298.9678504 78.91809497 -295.12119223 81.75761554 -292 88 C-291.26675592 95.14011446 -291.60921976 101.14974915 -296 107 C-302.08083572 113.82206626 -308.17702805 116.75694486 -317.22265625 117.3125 C-328.96345448 117.75885255 -337.15052976 116.49053372 -346.375 108.75 C-351.81007773 103.5794237 -355.68323324 97.68449307 -356.203125 89.99609375 C-356.36685821 77.56601448 -353.88800241 69.30430388 -347 59 C-346.13375 57.6696875 -346.13375 57.6696875 -345.25 56.3125 C-331.91586043 42.60796766 -313.79349702 39.33697238 -295.47802734 38.98876953 C-270.48285366 39.10204815 -247.06294382 46.54520099 -225.06884766 57.93359375 C-182.29620267 79.98114075 -135.8362346 92.5319754 -87.625 92.3125 C-86.76049225 92.31034485 -85.8959845 92.3081897 -85.00527954 92.30596924 C-69.1783038 92.24324219 -53.67987795 91.28408492 -38 89 C-36.049729 88.71793701 -36.049729 88.71793701 -34.06005859 88.43017578 C7.20371833 82.33339309 47.61771892 71.22463578 88 61 C81.88571546 61.67294621 81.88571546 61.67294621 75.90625 63.05078125 C74.84494873 63.35375122 74.84494873 63.35375122 73.76220703 63.6628418 C72.64241455 63.98442261 72.64241455 63.98442261 71.5 64.3125 C64.09949502 66.33677743 56.69028489 67.91286039 49.125 69.1875 C47.78405273 69.4191687 47.78405273 69.4191687 46.41601562 69.65551758 C29.08017361 72.45814537 11.72562703 73.3832793 -5.8125 73.3125 C-6.78622559 73.31034485 -7.75995117 73.3081897 -8.76318359 73.30596924 C-26.32605603 73.2441231 -43.57813862 72.36997825 -61 70 C-61.7002832 69.90525391 -62.40056641 69.81050781 -63.12207031 69.71289062 C-88.39175371 66.25314874 -113.22208313 60.99826334 -138 55 C-138.87015747 54.78950012 -139.74031494 54.57900024 -140.63684082 54.36212158 C-146.76532787 52.87470513 -152.88443736 51.35209671 -159 49.8125 C-159.79694275 49.61434692 -160.5938855 49.41619385 -161.41497803 49.21203613 C-169.67475127 47.14886549 -177.77385589 44.87769426 -185.7578125 41.90625 C-186.40250488 41.66650955 -187.04719727 41.4267691 -187.71142578 41.17976379 C-203.12358822 35.23257423 -215.30339828 24.20948479 -222.28125 9.25390625 C-227.53652 -3.37751057 -227.95636983 -18.17442333 -223.328125 -31.09765625 C-217.25403162 -44.37133679 -207.3079097 -51.69554202 -194 -57 C-130.29865529 -78.62623473 -53.8588116 -29.96409011 0 0 Z M-202.375 -33.6875 C-207.24786273 -27.50167148 -208.59730813 -20.59294827 -208.34765625 -12.83203125 C-206.96524226 -1.57079373 -200.89081826 7.27185563 -192.2734375 14.3515625 C-137.05088104 54.39266014 -17.45053361 61.97642651 48.05859375 51.9765625 C53.71944364 51.05898469 59.36508439 50.06512231 65 49 C62.05381986 46.67422693 59.04583546 44.8567396 55.73046875 43.1015625 C54.68874512 42.54654053 53.64702148 41.99151855 52.57373047 41.41967773 C51.45627441 40.82743408 50.33881836 40.23519043 49.1875 39.625 C40.52284222 34.99932069 31.90860773 30.30225212 23.375 25.4375 C13.61996498 19.88306466 3.77849653 14.5046808 -6.10546875 9.18359375 C-9.91142491 7.13384923 -13.70567799 5.06517467 -17.48828125 2.97265625 C-109.21014398 -51.71638727 -109.21014398 -51.71638727 -202.375 -33.6875 Z M712 -26 C709.89456984 -25.05980942 707.78910311 -24.11970072 705.68359375 -23.1796875 C684.34096113 -13.58341136 663.49498662 -3.03235268 643.03466797 8.31787109 C639.63206972 10.20394526 636.22459614 12.08108988 632.81640625 13.95703125 C621.70092142 20.07752468 610.59669893 26.21785873 599.51123047 32.39257812 C590.04188783 37.65755954 580.5182179 42.82408371 571 48 C571 48.33 571 48.66 571 49 C646.45882577 63.26336864 721.68520975 47.76074566 794.625 27.75 C795.37072266 27.54748627 796.11644531 27.34497253 796.88476562 27.13632202 C813.42385088 22.62346582 828.65643948 17.5615839 839 3 C843.92184257 -6.06576474 845.80414419 -15.55751808 842.9375 -25.6875 C838.87895378 -36.05524079 829.78776282 -41.64116947 820 -46 C812.84405814 -48.5946832 805.6020281 -50.49319813 798 -51 C796.99259766 -51.07734375 796.99259766 -51.07734375 795.96484375 -51.15625 C766.63479848 -52.36366181 738.09170708 -37.78148974 712 -26 Z M176.5 58.1875 C175.52250793 58.28295609 175.52250793 58.28295609 174.52526855 58.38034058 C164.0417447 59.41648807 153.64303809 60.84661718 143.25 62.5625 C141.32317383 62.87707153 141.32317383 62.87707153 139.35742188 63.19799805 C132.83155999 64.17239567 132.83155999 64.17239567 127 67 C141.45517416 72.94244013 155.85377376 78.1276092 171 82 C171.90588867 82.23203125 172.81177734 82.4640625 173.74511719 82.703125 C202.60392038 91.05186515 202.60392038 91.05186515 231 86 C234.62716048 82.82623458 236.25106643 80.17952954 237.0625 75.5 C237.22489713 72.27371032 236.935725 70.84084286 235.6875 67.75 C229.82459306 61.75074639 222.14345261 59.24615111 214 58 C213.31679687 57.88914062 212.63359375 57.77828125 211.9296875 57.6640625 C200.19363204 56.06172282 188.22835298 57.02059426 176.5 58.1875 Z M402.375 65.1875 C399.16421774 68.98974215 398.62701409 72.09046453 399 77 C400.60601208 81.72881334 402.80123135 84.32805631 407 87 C437.44033631 97.33261721 481.27602172 79.13860671 509 67 C504.12159631 63.74773088 498.47195863 63.49666071 492.75 62.5625 C491.76374634 62.39967026 491.76374634 62.39967026 490.75756836 62.23355103 C480.3730095 60.53142856 469.97250498 59.21018281 459.5 58.1875 C457.63553223 58.00199585 457.63553223 58.00199585 455.73339844 57.81274414 C438.47419623 56.23709521 417.43950062 54.83511806 402.375 65.1875 Z " fill="#ffffff" transform="translate(1184,964)"/>
<path d="M0 0 C2.70400855 1.45715579 5.10788785 3.28568568 7.5625 5.125 C9.08013868 6.22997813 10.59839395 7.33410978 12.1171875 8.4375 C13.30973145 9.31148437 13.30973145 9.31148437 14.52636719 10.203125 C18.70414772 13.23791228 22.94898072 16.17597197 27.1875 19.125 C35.16342987 24.6968566 43.09885001 30.32268361 51 36 C47.29702097 39.9418809 43.4303298 42.94678084 38.9375 45.9375 C37.51629008 46.89879849 36.09574983 47.86108757 34.67578125 48.82421875 C33.92248535 49.33388184 33.16918945 49.84354492 32.39306641 50.36865234 C28.1091001 53.28902195 23.86865711 56.27149788 19.625 59.25 C18.81796631 59.81581787 18.01093262 60.38163574 17.17944336 60.96459961 C16.39061768 61.51768799 15.60179199 62.07077637 14.7890625 62.640625 C13.6139209 63.45370117 13.6139209 63.45370117 12.41503906 64.28320312 C10.72148221 65.48711455 9.05869486 66.73493797 7.42089844 68.01367188 C6.14134277 68.98916992 6.14134277 68.98916992 4.8359375 69.984375 C4.07587402 70.58475586 3.31581055 71.18513672 2.53271484 71.80371094 C-1.97914009 73.93481651 -5.8994532 72.34926188 -10.46801758 70.89941406 C-11.68126709 70.44276367 -12.8945166 69.98611328 -14.14453125 69.515625 C-14.83085129 69.25932312 -15.51717133 69.00302124 -16.22428894 68.73895264 C-18.42290035 67.91589231 -20.61767036 67.0830847 -22.8125 66.25 C-24.17880249 65.73765687 -25.54533832 65.22593556 -26.91210938 64.71484375 C-27.57472798 64.46458598 -28.23734658 64.21432822 -28.92004454 63.95648688 C-30.46228244 63.37991712 -32.00860589 62.81413684 -33.55915296 62.26030093 C-38.6543162 60.40283431 -43.45360143 58.2941765 -48.27681923 55.81199169 C-74.97026206 42.90558042 -103.02356171 44.18072714 -131.99058205 44.4182278 C-139.79064246 44.47934672 -147.59011698 44.46243368 -155.3903263 44.44395294 C-169.77834253 44.41191129 -184.1656466 44.43920028 -198.55353928 44.50144386 C-212.7768055 44.56271709 -226.99969928 44.59571883 -241.22310257 44.59229088 C-242.55585757 44.59198716 -242.55585757 44.59198716 -243.91553691 44.5916773 C-248.42893828 44.59049069 -252.9423393 44.58878733 -257.45574041 44.58687123 C-289.32546044 44.5741298 -321.19484728 44.61979946 -353.06445312 44.7019043 C-383.9918643 44.78138832 -414.91917356 44.83906737 -445.84667969 44.86401367 C-446.8017535 44.86479558 -447.7568273 44.86557749 -448.74084274 44.8663831 C-468.68452613 44.88262662 -488.62821168 44.89490115 -508.57189845 44.90610332 C-516.85778566 44.91076221 -525.14367271 44.91568422 -533.42955974 44.92066905 C-536.15365332 44.92228247 -538.87774694 44.92382144 -541.60184057 44.92534908 C-565.62116577 44.93907064 -589.64035632 44.97447935 -613.6596227 45.02886327 C-624.44527966 45.05295718 -635.23094836 45.07043912 -646.01661895 45.0871614 C-654.50320182 45.10067461 -662.98972577 45.1203406 -671.47627381 45.14821149 C-677.13706729 45.16630753 -682.79784544 45.17735694 -688.45866532 45.18262991 C-691.68802249 45.18588223 -694.91726376 45.19356881 -698.14659338 45.20789704 C-701.61805753 45.22288724 -705.08932065 45.22572559 -708.560812 45.22539997 C-709.57217925 45.23276567 -710.5835465 45.24013137 -711.62556124 45.24772027 C-713.0085084 45.24382466 -713.0085084 45.24382466 -714.4193939 45.23985034 C-715.61059379 45.24280944 -715.61059379 45.24280944 -716.82585832 45.24582832 C-719.29267513 44.96690748 -720.88603207 44.28372226 -723 43 C-725.09679403 40.30412197 -724.99510821 38.907056 -724.8125 35.4375 C-724.02487718 32.10524961 -723.70318387 30.94629239 -721 29 C-718.65701057 27.82850529 -717.31791987 27.88362885 -714.70806426 27.89930683 C-713.34531079 27.90377855 -713.34531079 27.90377855 -711.95502695 27.9083406 C-710.94841034 27.91679531 -709.94179372 27.92525001 -708.90467358 27.93396091 C-707.30378386 27.94138185 -707.30378386 27.94138185 -705.67055294 27.9489527 C-702.05133891 27.96686516 -698.43220689 27.99192714 -694.81303406 28.01673889 C-692.20823973 28.03077566 -689.60344262 28.04430431 -686.99864322 28.05736536 C-681.31168249 28.08643499 -675.62474884 28.11884399 -669.93781853 28.15333366 C-655.79893105 28.23876674 -641.65995187 28.30695788 -627.52097853 28.37641858 C-624.15217211 28.39297957 -620.783367 28.40977914 -617.41456275 28.42677392 C-590.88645222 28.56036538 -564.35839432 28.65543093 -537.83003235 28.72154236 C-536.93324596 28.72379656 -536.03645957 28.72605077 -535.11249784 28.72837328 C-517.51068253 28.77256906 -499.90886002 28.81336017 -482.30702722 28.84994519 C-470.84473692 28.87377229 -459.38245018 28.89891709 -447.92016602 28.92553711 C-446.96857031 28.92772489 -446.01697461 28.92991267 -445.03654267 28.93216674 C-414.34499426 29.00331363 -383.65452078 29.15629142 -352.96353505 29.35191332 C-321.3445228 29.55298729 -289.72631413 29.66609043 -258.10663775 29.67396163 C-253.6116523 29.67512677 -249.11666785 29.67728292 -244.62168312 29.6800518 C-243.73726255 29.68056815 -242.85284198 29.6810845 -241.94162079 29.68161649 C-228.7319714 29.69168975 -215.52422798 29.77730843 -202.31522179 29.90361214 C-182.48509347 30.08924051 -162.6576235 30.16441793 -142.8269043 30.02758789 C-142.05474613 30.02246855 -141.28258796 30.01734922 -140.48703106 30.01207475 C-92.69199282 29.67231643 -49.15917925 25.56908834 -7 1 C-4.30293283 -0.34853359 -3.02296356 -0.40637919 0 0 Z " fill="#ffffff" transform="translate(2914,1000)"/>
<path d="M0 0 C3.46748047 1.07055784 6.48648569 2.88220652 9.64110494 4.65221786 C50.11891162 27.01764165 92.70179022 29.36754537 137.88047683 29.65554237 C139.04345585 29.66327159 139.04345585 29.66327159 140.22992939 29.67115694 C160.13499691 29.79670835 180.03709285 29.68638547 199.94130905 29.49137898 C213.17076955 29.36183243 226.39902486 29.29485578 239.62911689 29.2849369 C240.51521434 29.28424577 241.40131178 29.28355464 242.31426067 29.28284256 C246.81684806 29.2796293 251.31943535 29.27741539 255.8220235 29.27559924 C287.4788146 29.26118563 319.13406808 29.1288884 350.7901448 28.92263222 C381.47825946 28.72301931 412.1659258 28.57364689 442.85459793 28.49392128 C443.80506832 28.49142953 444.75553871 28.48893778 445.73481124 28.48637052 C458.12064194 28.453992 470.50647819 28.42419586 482.89231749 28.39531541 C498.59872447 28.35865584 514.30512625 28.31991454 530.01152286 28.279054 C531.82024703 28.27435656 533.62897127 28.26968866 535.4376956 28.26505058 C560.19460687 28.20149124 584.95114794 28.10613291 609.70778182 27.97258973 C615.57973653 27.94094477 621.45169721 27.91083131 627.32366538 27.88179684 C628.53654161 27.8757768 628.53654161 27.8757768 629.7739204 27.86963515 C632.98778179 27.85368881 636.20164321 27.83775294 639.4155055 27.82198835 C648.61433162 27.77674106 657.8130708 27.72527721 667.01179684 27.66283381 C673.27564881 27.6208102 679.53951397 27.58873299 685.80344211 27.56042731 C688.34587006 27.54715625 690.88828231 27.53034223 693.43066151 27.50975072 C696.86842914 27.48224597 700.30603793 27.46692977 703.74388874 27.45473671 C704.74525132 27.44365499 705.74661391 27.43257328 706.77832082 27.42115575 C708.14781616 27.42005497 708.14781616 27.42005497 709.54497808 27.41893196 C710.33128045 27.41405061 711.11758282 27.40916926 711.92771253 27.40414 C714.38871614 27.67752836 715.97655097 28.36396011 718.08531082 29.64382362 C720.18210484 32.33970166 720.08041903 33.73676762 719.89781082 37.20632362 C719.110188 40.53857401 718.78849469 41.69753124 716.08531082 43.64382362 C713.7405279 44.81621508 712.39301491 44.76180034 709.78071773 44.74911946 C708.41373655 44.7461851 708.41373655 44.7461851 707.01913959 44.74319145 C706.00937865 44.73588014 704.99961771 44.72856883 703.95925796 44.72103596 C702.3534249 44.7154126 702.3534249 44.7154126 700.71515077 44.70967564 C697.08483947 44.69581153 693.45460225 44.67479286 689.82432449 44.65400124 C687.21168995 44.64282594 684.59905324 44.63214776 681.98641479 44.62192708 C676.28262309 44.59903532 670.57885527 44.57274415 664.87508857 44.54432297 C655.59342333 44.49825057 646.31173452 44.45969907 637.03002822 44.42293739 C636.23502935 44.41978534 635.44003048 44.4166333 634.62094074 44.41338573 C630.52652211 44.39718173 626.43210304 44.38109499 622.33768368 44.36507984 C618.95981487 44.35183699 615.58194724 44.33833373 612.20408034 44.32461087 C585.61928159 44.21665803 559.03453823 44.14149406 532.44956863 44.09165382 C531.55126361 44.08995185 530.6529586 44.08824987 529.72743222 44.08649632 C512.09788586 44.0531163 494.46833505 44.02256932 476.83877838 43.99517286 C465.35959303 43.97731848 453.88041011 43.95829131 442.40122879 43.93801308 C441.44819473 43.93634833 440.49516068 43.93468359 439.5132468 43.9329684 C408.7449842 43.87873038 377.97746294 43.75566064 347.20957644 43.59709919 C315.52596227 43.43420985 283.84293499 43.34533151 252.15888367 43.34552195 C247.66037029 43.34550895 243.16185743 43.34465523 238.66334426 43.34328079 C237.33560093 43.34291081 237.33560093 43.34291081 235.98103449 43.34253335 C221.86406484 43.33646269 207.748557 43.25456127 193.63207438 43.14243743 C179.36169699 43.03072727 165.09292613 43.00212385 150.82218856 43.05247631 C143.12145386 43.07747153 135.42476889 43.06968131 127.72470176 42.95738602 C87.58401953 42.39599194 55.3529961 48.52777388 18.84469116 65.09750444 C14.6533545 66.97762628 10.43566429 68.7651135 6.16958892 70.46946782 C5.12617127 70.88651544 4.08275362 71.30356306 3.00771725 71.73324848 C-0.69537478 72.88707278 -3.48766112 73.37094828 -7.00087082 71.58083534 C-7.68528244 71.08341835 -8.36969407 70.58600136 -9.07484543 70.07351112 C-9.858676 69.5135746 -10.64250657 68.95363808 -11.45008957 68.37673378 C-12.70100388 67.45706825 -12.70100388 67.45706825 -13.97718918 66.51882362 C-15.76859382 65.23200044 -17.56026841 63.94555299 -19.35218918 62.65944862 C-20.27000168 61.9949369 -21.18781418 61.33042519 -22.13343918 60.64577675 C-26.54610676 57.46952375 -31.01406016 54.37353522 -35.47718918 51.26882362 C-42.34616867 46.46924636 -49.17370603 41.62225613 -55.91468918 36.64382362 C-51.84124552 32.23025147 -47.33872301 29.02659051 -42.35218918 25.70632362 C-40.65748826 24.56281505 -38.96350229 23.41824633 -37.27015793 22.27272987 C-36.39407883 21.68121132 -35.51799973 21.08969276 -34.61537278 20.4802494 C-30.10176603 17.4110621 -25.63276023 14.27877753 -21.16468918 11.14382362 C-20.34412034 10.56898232 -19.52355149 9.99414101 -18.67811692 9.40188026 C-17.89509202 8.85265907 -17.11206711 8.30343788 -16.30531418 7.73757362 C-15.18092942 6.95833534 -15.18092942 6.95833534 -14.03382981 6.16335487 C-12.66702822 5.18328885 -11.32867348 4.16165112 -10.02992356 3.09304237 C-6.55954461 0.2904894 -4.43234744 -0.804209 0 0 Z " fill="#ffffff" transform="translate(90.91468918323517,1000.3561763763428)"/>
<path d="M0 0 C2.70400855 1.45715579 5.10788785 3.28568568 7.5625 5.125 C9.08013868 6.22997813 10.59839395 7.33410978 12.1171875 8.4375 C12.9122168 9.02015625 13.70724609 9.6028125 14.52636719 10.203125 C18.70414772 13.23791228 22.94898072 16.17597197 27.1875 19.125 C35.16342987 24.6968566 43.09885001 30.32268361 51 36 C47.29702097 39.9418809 43.4303298 42.94678084 38.9375 45.9375 C37.51629008 46.89879849 36.09574983 47.86108757 34.67578125 48.82421875 C33.92248535 49.33388184 33.16918945 49.84354492 32.39306641 50.36865234 C28.1091001 53.28902195 23.86865711 56.27149788 19.625 59.25 C18.81796631 59.81581787 18.01093262 60.38163574 17.17944336 60.96459961 C16.39061768 61.51768799 15.60179199 62.07077637 14.7890625 62.640625 C14.00563477 63.18267578 13.22220703 63.72472656 12.41503906 64.28320312 C10.72148221 65.48711455 9.05869486 66.73493797 7.42089844 68.01367188 C6.56786133 68.66400391 5.71482422 69.31433594 4.8359375 69.984375 C4.07587402 70.58475586 3.31581055 71.18513672 2.53271484 71.80371094 C-1.97914009 73.93481651 -5.8994532 72.34926188 -10.46801758 70.89941406 C-11.68126709 70.44276367 -12.8945166 69.98611328 -14.14453125 69.515625 C-14.82002014 69.26353775 -15.49550903 69.0114505 -16.19146729 68.75172424 C-18.40120759 67.9248858 -20.60689003 67.08778753 -22.8125 66.25 C-24.3539126 65.66970711 -25.89550068 65.08988015 -27.43725586 64.51049805 C-30.65200501 63.30054596 -33.86478911 62.08555726 -37.07617188 60.86669922 C-41.17373622 59.3116473 -45.27521841 57.76725365 -49.37800598 56.2260437 C-52.52096553 55.04410549 -55.66185884 53.85675933 -58.80209351 52.66760254 C-60.30576693 52.09876903 -61.8100181 51.53146034 -63.31484985 50.96569824 C-65.41119168 50.17648308 -67.50473695 49.38027055 -69.59765625 48.58203125 C-70.78883057 48.13061768 -71.98000488 47.6792041 -73.20727539 47.21411133 C-76 46 -76 46 -78 44 C-77.08186523 43.9906543 -76.16373047 43.98130859 -75.21777344 43.97167969 C-71.80294722 43.92760069 -68.38936892 43.86596268 -64.97509766 43.79248047 C-63.49897804 43.76429912 -62.02270831 43.74307034 -60.54638672 43.72900391 C-58.42076943 43.70753302 -56.29695121 43.66086957 -54.171875 43.609375 C-52.8940918 43.58842773 -51.61630859 43.56748047 -50.29980469 43.54589844 C-46.9470584 43.24829566 -46.9470584 43.24829566 -44.54785156 41.18847656 C-42.64337598 38.95335509 -42.64337598 38.95335509 -43.0625 35.375 C-43.6750845 31.74483076 -43.6750845 31.74483076 -47 30 C-50.29770342 29.62967783 -50.29770342 29.62967783 -54.07421875 29.5859375 C-54.7580513 29.56657135 -55.44188385 29.5472052 -56.1464386 29.5272522 C-58.32666625 29.46756003 -60.50694702 29.42111369 -62.6875 29.375 C-64.1673405 29.33681057 -65.647159 29.29775826 -67.12695312 29.2578125 C-70.7511005 29.16186798 -74.37541257 29.07779849 -78 29 C-74.7183756 26.24066275 -71.43562358 24.86200798 -67.42724609 23.38037109 C-66.45095497 23.01636452 -66.45095497 23.01636452 -65.4549408 22.64500427 C-63.31336346 21.84824281 -61.16846513 21.06085749 -59.0234375 20.2734375 C-57.53156236 19.72022586 -56.03991709 19.16639397 -54.54849243 18.61196899 C-50.62887357 17.15660534 -46.70642817 15.70902004 -42.78326416 14.26324463 C-38.01026764 12.50281129 -33.24037621 10.73398691 -28.47031593 8.96561623 C-24.76088888 7.59049976 -21.05092031 6.21691569 -17.33920288 4.84799194 C-16.65823044 4.59639816 -15.977258 4.34480438 -15.27565002 4.08558655 C-13.43641554 3.40607938 -11.59680681 2.72758542 -9.75717163 2.04916382 C-3.23069096 -0.43430413 -3.23069096 -0.43430413 0 0 Z " fill="#ffffff" transform="translate(2914,1000)"/>
<path d="M0 0 C2.38738949 0.75742194 4.75305867 1.58554907 7.09692383 2.46850586 C7.7677298 2.71903214 8.43853577 2.96955841 9.12966919 3.22767639 C11.32485066 4.04967358 13.51597379 4.88192264 15.70703125 5.71484375 C17.23905573 6.29201879 18.77125978 6.86871739 20.30363464 7.44496155 C23.5035608 8.65008421 26.70155107 9.86016904 29.89819336 11.07397461 C33.99853019 12.63058774 38.10303309 14.1758509 42.20897388 15.71761227 C45.36829788 16.90510286 48.52558658 18.09792647 51.6822567 19.29245186 C53.19558407 19.86450764 54.70949031 20.43503448 56.22397804 21.00401115 C58.3347333 21.79804847 60.44269992 22.59907334 62.55004883 23.40209961 C63.75027176 23.85652939 64.95049469 24.31095917 66.18708801 24.77915955 C69 26 69 26 71 28 C70.08186523 28.0093457 69.16373047 28.01869141 68.21777344 28.02832031 C64.80294722 28.07239931 61.38936892 28.13403732 57.97509766 28.20751953 C56.49897804 28.23570088 55.02270831 28.25692966 53.54638672 28.27099609 C51.42076943 28.29246698 49.29695121 28.33913043 47.171875 28.390625 C45.8940918 28.41157227 44.61630859 28.43251953 43.29980469 28.45410156 C39.9470584 28.75170434 39.9470584 28.75170434 37.54785156 30.81152344 C35.64337598 33.04664491 35.64337598 33.04664491 36.0625 36.625 C36.6750845 40.25516924 36.6750845 40.25516924 40 42 C43.29770342 42.37032217 43.29770342 42.37032217 47.07421875 42.4140625 C47.7580513 42.43342865 48.44188385 42.4527948 49.1464386 42.4727478 C51.32666625 42.53243997 53.50694702 42.57888631 55.6875 42.625 C57.1673405 42.66318943 58.647159 42.70224174 60.12695312 42.7421875 C63.7511005 42.83813202 67.37541257 42.92220151 71 43 C67.65141061 45.83886314 64.25859406 47.18748565 60.1484375 48.6796875 C59.12904083 49.05370949 59.12904083 49.05370949 58.08905029 49.43528748 C55.85318817 50.254562 53.6141613 51.06479082 51.375 51.875 C48.21226708 53.02908257 45.05128795 54.18791822 41.890625 55.34765625 C41.07993561 55.64453842 40.26924622 55.94142059 39.43399048 56.24729919 C33.69825159 58.35489203 27.99151599 60.53004406 22.296875 62.74609375 C21.52086945 63.04723083 20.74486389 63.34836792 19.94534302 63.65863037 C16.93206101 64.8286541 13.91908807 65.99911854 10.91229248 67.18572998 C8.84271496 68.00216452 6.76945519 68.80853013 4.6953125 69.61328125 C2.9321167 70.30611206 2.9321167 70.30611206 1.13330078 71.01293945 C-2.75610975 72.23819166 -5.37952413 72.82569361 -9.08618164 70.93701172 C-9.77059326 70.43959473 -10.45500488 69.94217773 -11.16015625 69.4296875 C-11.94398682 68.86975098 -12.72781738 68.30981445 -13.53540039 67.73291016 C-14.7863147 66.81324463 -14.7863147 66.81324463 -16.0625 65.875 C-17.85390464 64.58817681 -19.64557923 63.30172936 -21.4375 62.015625 C-22.3553125 61.35111328 -23.273125 60.68660156 -24.21875 60.00195312 C-28.63141758 56.82570013 -33.09937098 53.7297116 -37.5625 50.625 C-44.43147949 45.82542273 -51.25901685 40.97843251 -58 36 C-53.92655634 31.58642784 -49.42403383 28.38276689 -44.4375 25.0625 C-42.74279907 23.91899143 -41.04881311 22.77442271 -39.35546875 21.62890625 C-38.47938965 21.0373877 -37.60331055 20.44586914 -36.70068359 19.83642578 C-32.18707684 16.76723848 -27.71807104 13.63495391 -23.25 10.5 C-22.42943115 9.92515869 -21.6088623 9.35031738 -20.76342773 8.75805664 C-19.98040283 8.20883545 -19.19737793 7.65961426 -18.390625 7.09375 C-17.26624023 6.31451172 -17.26624023 6.31451172 -16.11914062 5.51953125 C-14.75233903 4.53946522 -13.4139843 3.51782749 -12.11523438 2.44921875 C-7.63272651 -1.17069306 -5.51598438 -1.15418961 0 0 Z " fill="#ffffff" transform="translate(93,1001)"/>
<path d="M0 0 C0.33 0 0.66 0 1 0 C1.08636719 0.87140625 1.17273437 1.7428125 1.26171875 2.640625 C2.92830387 16.76837408 7.27607063 28.66908516 18.421875 38.03515625 C28.35647782 45.30099154 38.08937828 47.92858753 50 50 C50 50.33 50 50.66 50 51 C49.20078125 51.08636719 48.4015625 51.17273437 47.578125 51.26171875 C32.48426529 53.19274071 20.77597913 58.7617411 10.890625 70.3984375 C4.24918909 79.53727287 1.96162514 88.94131094 1 100 C0.01 99.505 0.01 99.505 -1 99 C-1.37350838 97.03463448 -1.6477144 95.05008934 -1.875 93.0625 C-3.85277579 79.24826455 -10.05189995 69.80241705 -20.609375 60.7890625 C-29.5627959 54.0886266 -39.09542645 51.9591986 -50 51 C-46.57353199 49.01315368 -43.31922648 48.42659143 -39.4375 47.75 C-26.74505068 45.1139773 -16.53674792 38.55736557 -9.25 27.8125 C-4.06684657 19.19358883 -1.65561488 9.84655166 0 0 Z " fill="#ffffff" transform="translate(1502,997)"/>
</svg>
